<svg width="524" height="190" viewBox="0 0 524 190" fill="none" xmlns="http://www.w3.org/2000/svg">
<path d="M198.761 136H190.482L180.439 113.2H132.939L122.897 136H114.618L153.432 48.8714H159.947L198.761 136ZM177.454 106.279L156.689 58.1L135.925 106.279H177.454ZM264.409 136H257.081V101.121C257.081 88.8167 252.059 82.8 242.017 83.0714H240.252C233.376 83.7952 228.264 86.1476 224.917 90.1286C221.569 94.019 219.85 98 219.759 102.071V136H212.295V76.4214H219.759V87.4143C223.469 82.619 227.269 79.4976 231.159 78.05C235.05 76.5119 238.036 75.7428 240.117 75.7428L242.831 75.6071C247.898 75.6071 251.879 76.5571 254.774 78.4571C257.669 80.2667 259.795 82.5286 261.152 85.2429C262.509 87.9571 263.369 90.7619 263.731 93.6571C264.183 96.5524 264.409 99.0405 264.409 101.121V136ZM300.659 136.814C297.583 136.814 295.14 136.498 293.33 135.864C291.521 135.14 290.028 134.236 288.852 133.15C286.047 130.436 284.645 126.726 284.645 122.021V83.0714H273.923V76.4214H284.645V65.2928L291.973 61.2214V76.4214H302.695V83.0714H291.973V121.479C291.973 122.021 292.109 122.926 292.38 124.193C292.652 125.46 293.33 126.681 294.416 127.857C296.045 129.395 298.442 130.164 301.609 130.164C302.514 130.164 303.464 130.119 304.459 130.029L304.595 136.679C303.147 136.769 301.835 136.814 300.659 136.814ZM325.654 136H318.189V76.4214H325.654V86.1929C328.097 82.7548 330.63 80.3119 333.254 78.8643C335.968 77.3262 338.501 76.4214 340.854 76.15C343.206 75.7881 344.925 75.6071 346.011 75.6071V83.0714C346.011 83.0714 344.292 83.3881 340.854 84.0214C337.506 84.5643 334.204 86.1476 330.947 88.7714C327.689 91.3952 325.97 95.5571 325.789 101.257L325.654 136ZM367.14 136H359.676V76.4214H367.14V136ZM359.54 55.5214H367.14V64.6143H359.54V55.5214ZM412.638 136.814C403.41 136.814 395.764 133.829 389.702 127.857C383.731 121.886 380.745 114.693 380.745 106.279C380.745 97.7738 383.731 90.5357 389.702 84.5643C395.674 78.5929 402.912 75.6071 411.417 75.6071C416.755 75.6071 421.324 76.6476 425.124 78.7286C429.014 80.8095 432.181 83.4333 434.624 86.6C437.157 89.7667 439.012 93.1143 440.188 96.6429C441.364 100.081 441.952 103.248 441.952 106.143V107.636H388.481C389.024 114.15 391.467 119.443 395.81 123.514C400.243 127.495 405.852 129.486 412.638 129.486C416.8 129.486 420.645 128.49 424.174 126.5C427.793 124.419 430.688 121.524 432.86 117.814L438.967 121.75C436.162 126.455 432.407 130.164 427.702 132.879C422.998 135.502 417.976 136.814 412.638 136.814ZM433.674 100.85C432.407 95.5119 429.693 91.2143 425.531 87.9571C421.369 84.6095 416.574 82.9357 411.145 82.9357C405.807 82.9357 401.102 84.5643 397.031 87.8214C392.96 91.0786 390.245 95.4214 388.888 100.85H433.674ZM486.301 136.814C476.711 136.814 468.93 132.562 462.958 124.057V136H455.494V48.8714H462.958V88.6357C465.673 84.8357 468.478 82.0309 471.373 80.2214C474.358 78.3214 477.163 77.1 479.787 76.5571C482.501 75.9238 484.673 75.6071 486.301 75.6071C494.716 75.6071 501.908 78.5929 507.88 84.5643C513.851 90.5357 516.837 97.7286 516.837 106.143C516.837 114.648 513.851 121.886 507.88 127.857C501.908 133.829 494.716 136.814 486.301 136.814ZM486.03 129.486C492.363 129.486 497.792 127.224 502.316 122.7C506.93 118.086 509.237 112.567 509.237 106.143C509.237 99.719 506.93 94.2452 502.316 89.7214C497.792 85.1071 492.363 82.8 486.03 82.8C479.606 82.8 474.132 85.1071 469.608 89.7214C465.175 94.2452 462.958 99.719 462.958 106.143C462.958 112.567 465.175 118.086 469.608 122.7C474.132 127.224 479.606 129.486 486.03 129.486Z" fill="white"/>
<path d="M6.07965 49.0531H84.536C86.7745 49.0531 88.5891 50.8677 88.5891 53.1062V86.9785" stroke="white" stroke-width="2.89507"/>
<path d="M32.9662 91.3344H57.3619L35.7505 112.472C35.6169 112.603 35.5104 112.758 35.437 112.93C35.3636 113.102 35.3247 113.287 35.3227 113.474C35.3206 113.661 35.3554 113.846 35.425 114.019C35.4947 114.193 35.5978 114.351 35.7284 114.484C35.8591 114.618 36.0149 114.725 36.1867 114.798C36.3586 114.871 36.5432 114.91 36.7301 114.912C36.917 114.914 37.1024 114.88 37.2759 114.81C37.4493 114.74 37.6073 114.637 37.7409 114.507L61.8463 90.9289C62.0486 90.7311 62.1873 90.4776 62.2448 90.2006C62.3022 89.9237 62.2758 89.6359 62.1689 89.374C62.062 89.1121 61.8795 88.888 61.6446 88.7304C61.4098 88.5727 61.1333 88.4887 60.8504 88.4889H36.4562L58.0676 67.3527C58.2011 67.222 58.3077 67.0663 58.3811 66.8944C58.4545 66.7226 58.4933 66.5379 58.4954 66.3511C58.4974 66.1642 58.4626 65.9787 58.393 65.8053C58.3234 65.6319 58.2203 65.4738 58.0896 65.3403C57.9589 65.2067 57.8032 65.1001 57.6313 65.0267C57.4595 64.9533 57.2748 64.9145 57.0879 64.9124C56.9011 64.9104 56.7156 64.9452 56.5422 65.0148C56.3688 65.0844 56.2107 65.1875 56.0772 65.3182L31.9717 88.8972C31.77 89.0951 31.6317 89.3485 31.5745 89.6252C31.5174 89.9019 31.5439 90.1894 31.6507 90.451C31.7575 90.7126 31.9398 90.9364 32.1744 91.094C32.4089 91.2516 32.6851 91.3358 32.9676 91.3358L32.9662 91.3344Z" fill="#FFA367"/>
<path d="M88.2996 133.3H9.84324C7.60478 133.3 5.79015 131.485 5.79015 129.246V95.3742" stroke="white" stroke-width="2.89507"/>
</svg>
